<?xml version="1.0" encoding="UTF-8" standalone="no"?>
<svg
   xmlns:dc="http://purl.org/dc/elements/1.1/"
   xmlns:cc="http://creativecommons.org/ns#"
   xmlns:rdf="http://www.w3.org/1999/02/22-rdf-syntax-ns#"
   xmlns:svg="http://www.w3.org/2000/svg"
   xmlns="http://www.w3.org/2000/svg"
   xmlns:sodipodi="http://sodipodi.sourceforge.net/DTD/sodipodi-0.dtd"
   xmlns:inkscape="http://www.inkscape.org/namespaces/inkscape"
   version="1.0"
   width="1450.663pt"
   height="995.99921pt"
   viewBox="0 0 1450.663 995.99921"
   preserveAspectRatio="xMidYMid meet"
   id="svg80"
   sodipodi:docname="gh.svg"
   inkscape:version="0.92.2 (5c3e80d, 2017-08-06)">
  <defs
     id="defs84" />
  <sodipodi:namedview
     pagecolor="#ffffff"
     bordercolor="#666666"
     borderopacity="1"
     objecttolerance="10"
     gridtolerance="10"
     guidetolerance="10"
     inkscape:pageopacity="0"
     inkscape:pageshadow="2"
     inkscape:window-width="1600"
     inkscape:window-height="1745"
     id="namedview82"
     showgrid="false"
     fit-margin-top="0"
     fit-margin-left="0"
     fit-margin-right="0"
     fit-margin-bottom="0"
     inkscape:zoom="0.855"
     inkscape:cx="782.64043"
     inkscape:cy="782.33153"
     inkscape:window-x="1600"
     inkscape:window-y="27"
     inkscape:window-maximized="0"
     inkscape:current-layer="svg80" />
  <metadata
     id="metadata2">
Created by potrace 1.13, written by Peter Selinger 2001-2015
<rdf:RDF>
  <cc:Work
     rdf:about="">
    <dc:format>image/svg+xml</dc:format>
    <dc:type
       rdf:resource="http://purl.org/dc/dcmitype/StillImage" />
    <dc:title></dc:title>
  </cc:Work>
</rdf:RDF>
</metadata>
  <g
     transform="matrix(0.1,0,0,-0.1,-478.94865,1080)"
     id="g78"
     style="fill:#f39c12;stroke:none">
    <path
       d="m 10185,10783 c -25,-13 -138,-104 -155,-124 -3,-3 -57,-44 -120,-92 -63,-47 -143,-111 -177,-143 -34,-31 -75,-66 -91,-78 -46,-34 -202,-198 -202,-213 0,-8 -6,-16 -13,-19 -18,-6 -116,-135 -139,-183 -10,-20 -32,-61 -48,-91 -16,-30 -29,-63 -29,-73 -1,-10 -11,-37 -23,-60 -12,-23 -26,-51 -31,-62 -6,-11 -11,-36 -12,-55 -1,-19 -8,-60 -15,-90 -11,-45 -18,-189 -21,-427 0,-20 10,-46 25,-66 14,-19 26,-47 26,-63 0,-16 9,-47 19,-69 10,-22 21,-52 24,-66 4,-15 13,-29 22,-32 18,-7 45,18 45,42 0,32 21,80 33,75 15,-5 39,45 30,60 -11,16 -4,135 9,176 10,32 34,86 59,132 5,10 9,23 9,30 0,7 4,19 9,27 8,12 12,12 25,2 24,-20 45,-6 68,46 11,27 31,63 45,81 13,18 33,51 43,75 11,23 44,66 75,96 31,30 61,66 68,80 7,13 25,32 41,41 16,8 49,45 73,80 25,36 47,63 51,62 3,-2 9,4 15,13 6,11 16,15 31,11 18,-4 26,0 34,19 6,14 20,25 30,25 10,0 22,4 28,9 18,16 99,58 128,65 17,4 35,13 40,20 6,7 23,17 38,24 26,11 27,10 18,-14 -6,-14 -10,-26 -10,-27 0,-1 20,-3 44,-5 47,-3 56,8 56,68 0,14 9,34 21,43 14,13 18,22 11,30 -22,26 -12,234 12,249 7,4 4,9 -7,14 -9,3 -17,14 -17,24 0,9 -9,25 -20,35 -13,12 -18,25 -14,34 12,27 23,125 18,148 -9,33 -55,60 -108,62 -15,1 -17,6 -12,36 6,30 4,35 -11,35 -10,-1 -31,-8 -48,-17 z m -17,-133 c 4,0 8,-16 9,-34 l 1,-35 -48,1 c -45,1 -48,3 -39,20 19,36 44,58 57,53 8,-3 17,-5 20,-5 z m 12,-125 c -7,-9 -15,-13 -17,-11 -7,7 7,26 19,26 6,0 6,-6 -2,-15 z m -445,-344 c 7,-12 -12,-24 -25,-16 -11,7 -4,25 10,25 5,0 11,-4 15,-9 z m -45,-35 c 0,-16 -14,-36 -26,-36 -14,0 -19,22 -7,33 7,8 33,10 33,3 z"
       id="path4"
       inkscape:connector-curvature="0" />
    <path
       d="m 12164,10607 c -16,-19 -24,-41 -24,-67 0,-21 -6,-43 -15,-50 -8,-7 -15,-19 -15,-28 0,-8 -15,-33 -33,-56 -32,-40 -50,-70 -52,-91 0,-5 -13,-30 -27,-55 -15,-25 -33,-70 -42,-100 -8,-30 -22,-75 -31,-100 -16,-45 -95,-200 -106,-210 -11,-10 -39,-73 -39,-89 0,-9 -11,-33 -25,-53 -14,-20 -25,-39 -25,-42 0,-3 -12,-31 -26,-63 -14,-32 -29,-67 -34,-78 -5,-11 -14,-38 -20,-60 -6,-22 -19,-56 -29,-75 -10,-19 -25,-60 -34,-90 -9,-30 -27,-92 -41,-138 -14,-46 -26,-89 -26,-95 0,-7 -13,-48 -30,-90 -16,-43 -30,-90 -30,-105 0,-15 -9,-38 -20,-52 -11,-14 -20,-34 -20,-45 0,-11 -7,-33 -15,-49 -8,-15 -15,-34 -15,-42 0,-7 -11,-48 -25,-90 -14,-43 -23,-85 -20,-94 3,-10 -1,-23 -10,-30 -8,-7 -15,-21 -15,-31 0,-10 -4,-20 -8,-23 -27,-16 -38,-246 -12,-246 4,0 11,-16 14,-35 7,-37 34,-59 60,-49 11,4 13,11 7,22 -28,54 -17,185 26,297 8,22 14,41 13,43 -5,6 107,361 121,386 16,27 76,214 85,261 4,21 22,82 41,135 19,52 41,117 49,144 7,27 27,78 43,112 16,34 27,65 24,67 -3,3 7,23 21,44 14,20 26,42 26,48 0,5 11,32 24,60 13,27 38,82 55,120 18,39 36,78 42,88 28,52 48,97 89,197 36,88 106,227 128,253 14,16 17,16 46,-6 17,-13 42,-27 56,-30 14,-3 43,-10 65,-16 22,-6 60,-11 86,-11 25,0 49,-4 55,-8 5,-5 41,-17 79,-27 39,-10 75,-21 80,-25 6,-4 37,-12 70,-19 33,-8 125,-35 205,-61 80,-27 170,-54 200,-61 134,-30 341,-109 475,-182 17,-10 35,-17 41,-17 6,0 17,-7 24,-15 7,-8 20,-15 28,-15 9,0 33,-12 53,-26 21,-14 57,-30 81,-35 24,-5 57,-16 73,-24 17,-7 37,-16 45,-20 8,-3 24,-11 35,-18 12,-7 69,-41 129,-76 59,-35 131,-85 160,-110 28,-26 71,-63 96,-82 94,-75 216,-207 236,-255 8,-18 39,-61 69,-95 30,-34 55,-65 55,-70 0,-4 14,-32 32,-61 17,-29 40,-71 51,-93 39,-80 72,-112 123,-119 66,-9 77,3 70,73 -3,31 -8,86 -11,123 -2,38 -9,76 -14,86 -6,11 -6,24 0,33 15,24 10,87 -11,124 -15,27 -18,41 -10,55 11,20 -3,39 -15,20 -10,-16 -64,30 -84,74 -10,23 -22,57 -25,77 -4,21 -13,42 -21,49 -8,7 -15,17 -15,22 0,5 -18,31 -40,57 -22,26 -40,54 -40,62 0,8 -36,51 -78,96 -67,71 -99,98 -191,158 -8,6 -22,17 -31,26 -30,32 -130,108 -162,123 -18,9 -46,27 -62,41 -17,14 -66,44 -110,66 -43,23 -96,52 -117,65 -20,13 -49,26 -63,30 -14,3 -26,10 -26,15 0,5 -17,17 -37,28 -21,10 -65,33 -98,51 -33,18 -91,43 -129,56 -38,13 -93,37 -122,54 -30,16 -67,30 -83,30 -20,0 -34,7 -41,20 -6,11 -16,17 -25,14 -9,-4 -21,-1 -28,4 -7,6 -44,16 -82,22 -39,6 -86,15 -105,20 -97,25 -184,40 -270,46 -52,3 -113,7 -135,8 -22,2 -56,7 -75,11 -19,5 -127,9 -239,9 l -203,1 z m 126,-147 c 0,-5 9,-10 21,-10 14,0 19,-5 17,-17 -5,-24 -19,-25 -55,-3 -39,24 -42,40 -8,40 14,0 25,-4 25,-10 z m 332,-143 c 15,-24 7,-29 -19,-12 -17,12 -28,14 -31,7 -2,-6 -10,-8 -18,-5 -11,4 -12,8 -2,20 13,16 58,9 70,-10 z m 94,-18 c 3,-6 17,-9 30,-6 16,3 33,-4 49,-19 l 25,-23 -27,4 c -70,11 -98,22 -101,38 -4,19 13,23 24,6 z m 204,-79 c 0,-23 0,-23 -34,-10 -35,13 -33,30 4,30 23,0 30,-4 30,-20 z m 108,-5 c 18,-1 38,-7 44,-13 8,-8 21,-7 46,4 19,8 44,12 54,8 10,-3 33,-7 50,-10 39,-4 67,-29 51,-45 -8,-8 -17,-8 -32,1 -12,6 -70,13 -129,14 -114,4 -162,16 -162,41 0,12 6,15 23,9 12,-4 37,-8 55,-9 z m 820,-118 c 12,3 28,0 36,-6 8,-7 68,-39 133,-72 65,-33 132,-73 148,-88 17,-15 42,-35 58,-44 49,-31 28,-37 -23,-7 -28,17 -57,30 -65,30 -8,0 -17,4 -20,10 -3,5 -30,17 -60,25 -29,9 -59,22 -65,30 -7,8 -17,15 -23,15 -16,0 -57,41 -57,57 0,7 -10,12 -22,11 -32,-3 -111,34 -96,43 7,4 17,4 23,-1 6,-5 21,-7 33,-3 z m 82,-282 c 10,-13 9,-15 -9,-15 -12,0 -21,6 -21,15 0,8 4,15 9,15 5,0 14,-7 21,-15 z m 330,-110 c 0,-9 -7,-18 -16,-22 -18,-7 -39,11 -30,26 11,17 46,13 46,-4 z m 410,-215 c 17,-26 30,-51 30,-55 0,-15 -58,57 -71,88 -6,15 -15,27 -19,27 -4,0 -11,8 -14,17 -12,29 41,-25 74,-77 z m 283,-359 c -9,-13 -21,18 -16,39 7,25 7,25 13,-5 4,-16 5,-32 3,-34 z m -143,-7 c 7,-19 10,-37 7,-40 -6,-6 -57,69 -57,84 0,26 38,-8 50,-44 z m 130,-30 c 0,-8 -4,-12 -10,-9 -5,3 -10,10 -10,16 0,5 5,9 10,9 6,0 10,-7 10,-16 z"
       id="path6"
       inkscape:connector-curvature="0" />
    <path
       d="m 15610,9994 c 0,-8 5,-12 10,-9 6,3 10,10 10,16 0,5 -4,9 -10,9 -5,0 -10,-7 -10,-16 z"
       id="path8"
       inkscape:connector-curvature="0" />
    <path
       d="m 10249,9721 c -36,-28 -82,-48 -101,-44 -10,3 -19,-4 -22,-15 -4,-11 -36,-49 -73,-83 -36,-35 -79,-77 -95,-93 -31,-31 -88,-112 -88,-126 0,-4 -17,-23 -39,-42 -21,-18 -58,-60 -82,-93 -24,-33 -49,-65 -54,-71 -6,-6 -30,-50 -55,-98 -38,-74 -43,-90 -34,-114 5,-15 7,-45 3,-67 -12,-68 52,-382 82,-400 5,-4 9,-19 9,-34 0,-15 5,-32 11,-38 6,-6 11,-33 12,-59 0,-49 49,-164 68,-164 5,0 18,-9 29,-20 23,-23 26,-80 9,-159 -8,-41 -15,-50 -37,-57 -30,-8 -26,-8 -129,-27 -39,-8 -83,-21 -97,-31 -21,-13 -50,-17 -144,-16 -113,0 -174,4 -190,14 -11,7 -303,21 -432,21 -148,0 -348,-13 -369,-24 -9,-5 -36,-7 -61,-4 -46,5 -94,-13 -167,-64 -15,-11 -80,-46 -144,-77 -105,-51 -125,-66 -203,-146 -55,-56 -93,-87 -102,-83 -9,3 -14,-2 -14,-16 0,-12 -23,-43 -55,-75 -30,-29 -55,-57 -55,-61 0,-3 -14,-26 -31,-51 -16,-24 -27,-49 -24,-55 4,-5 1,-17 -6,-25 -9,-11 -9,-20 0,-40 12,-26 19,-27 65,-8 12,5 17,4 13,-3 -7,-11 19,-53 33,-53 14,0 53,41 83,87 19,30 37,45 62,52 19,5 48,19 64,30 16,12 36,21 45,21 9,0 56,18 104,41 48,22 101,46 117,53 98,43 155,72 155,78 0,4 23,19 50,33 28,14 53,32 57,40 3,8 11,15 19,15 8,0 14,4 14,9 0,4 12,8 28,8 15,-1 81,2 147,7 151,9 420,10 434,2 11,-7 142,-18 216,-18 22,0 43,-4 46,-9 15,-25 159,-34 499,-31 193,2 217,4 230,20 10,12 32,19 64,21 59,3 86,15 86,39 0,23 19,42 41,42 10,0 21,10 25,23 4,12 27,39 50,60 24,21 44,45 44,53 0,9 11,14 30,14 27,0 35,8 31,32 0,4 12,5 28,2 23,-5 35,-1 56,20 14,14 31,26 38,26 7,0 21,6 32,14 11,7 42,13 68,13 26,0 53,5 59,11 6,6 17,8 25,5 20,-8 77,25 89,51 5,11 18,25 30,30 42,19 69,74 71,147 5,193 -117,322 -290,305 -34,-3 -107,-9 -162,-12 -55,-3 -120,-7 -145,-9 -26,-1 -59,4 -78,13 -30,13 -33,19 -28,44 5,23 2,28 -14,28 -25,0 -80,48 -80,70 0,9 -6,22 -12,29 -16,15 -16,154 -1,173 6,7 32,55 58,106 42,83 50,93 69,88 19,-5 24,0 32,32 7,27 15,38 32,40 12,2 22,9 22,17 0,18 27,28 85,28 78,1 125,-12 195,-51 36,-20 76,-43 90,-50 14,-6 43,-23 65,-36 22,-14 56,-32 76,-41 19,-9 52,-36 73,-60 20,-25 43,-45 51,-45 19,0 38,36 30,59 -3,10 1,38 10,62 18,53 20,142 3,172 -7,12 -11,48 -9,79 1,40 -4,71 -18,103 -23,53 -98,145 -118,145 -7,0 -18,11 -23,25 -6,15 -17,25 -30,25 -12,0 -24,9 -30,24 -5,13 -20,26 -36,30 -15,4 -43,20 -61,36 -18,16 -52,34 -75,40 -24,6 -52,22 -64,36 -11,14 -32,27 -45,29 -49,8 -114,26 -123,36 -17,16 -92,10 -117,-10 z m 208,-150 c 29,-10 54,-17 56,-14 3,2 24,-5 48,-16 23,-12 50,-21 60,-21 9,0 19,-7 23,-15 6,-17 -19,-21 -30,-4 -4,7 -21,9 -41,6 -25,-4 -39,-1 -52,12 -9,9 -23,15 -29,13 -7,-2 -19,3 -27,12 -13,12 -29,14 -76,9 -61,-6 -78,5 -36,25 32,15 46,14 104,-7 z m -249,-71 c -13,-21 -38,-27 -38,-10 0,9 28,29 43,30 4,0 2,-9 -5,-20 z m 477,-20 c 3,-5 1,-10 -4,-10 -6,0 -11,5 -11,10 0,6 2,10 4,10 3,0 8,-4 11,-10 z m 176,-171 c 27,-38 17,-43 -41,-22 -8,4 -22,7 -30,7 -10,1 -16,14 -18,41 -2,22 -10,48 -19,57 -8,9 -12,21 -9,27 7,10 80,-59 117,-110 z m -416,26 c 24,-20 27,-27 16,-34 -12,-8 -66,1 -78,13 -6,6 16,46 25,46 4,-1 21,-12 37,-25 z m -583,-137 c -7,-7 -12,-8 -12,-2 0,14 12,26 19,19 2,-3 -1,-11 -7,-17 z m 148,-382 c 0,-8 -4,-18 -10,-21 -5,-3 -10,3 -10,14 0,12 5,21 10,21 6,0 10,-6 10,-14 z m -50,-11 c 0,-8 -2,-15 -4,-15 -2,0 -6,7 -10,15 -3,8 -1,15 4,15 6,0 10,-7 10,-15 z m 432,-454 c 11,6 19,5 23,-2 4,-6 5,-11 4,-13 -76,-51 -104,-64 -143,-67 -42,-4 -45,-1 -56,46 -8,36 -8,36 20,30 15,-3 31,-2 34,3 3,5 26,6 53,2 26,-4 56,-4 65,1 z m 421,-178 c -6,-49 -24,-75 -75,-108 -18,-11 -28,-26 -28,-41 0,-28 -13,-37 -40,-29 -26,8 -25,19 4,35 13,7 39,42 57,78 61,118 93,144 82,65 z m -857,-170 c -1,-57 -9,-70 -35,-54 -11,7 -11,17 0,60 17,69 36,66 35,-6 z m 684,27 c 0,-5 -5,-10 -11,-10 -5,0 -7,5 -4,10 3,6 8,10 11,10 2,0 4,-4 4,-10 z m -360,-88 c 0,-16 -24,-32 -48,-32 h -24 l 23,20 c 25,20 49,26 49,12 z m -450,-119 c -7,-10 -27,-29 -46,-41 -19,-12 -34,-28 -34,-35 0,-27 -46,-35 -181,-32 -133,3 -189,14 -189,36 0,9 18,10 63,6 59,-6 66,-4 93,21 28,25 35,27 122,26 81,-1 94,1 103,18 7,13 17,16 33,12 13,-3 27,-1 31,6 4,6 9,9 12,7 2,-3 -1,-14 -7,-24 z m -1113,-50 c -9,-8 -123,-26 -157,-24 -14,0 -61,-4 -105,-10 -44,-6 -91,-12 -105,-13 -14,-1 -35,-8 -47,-14 -29,-16 -44,-15 -37,3 8,20 68,38 144,40 79,3 293,25 299,31 2,2 7,2 9,-1 3,-3 2,-8 -1,-12 z m 1187,-35 c -7,-11 -44,-10 -44,2 0,16 34,30 42,17 4,-6 4,-15 2,-19 z M 8032,7570 c -9,-16 -33,-38 -53,-49 -20,-12 -42,-28 -49,-36 -16,-19 -40,-19 -40,0 0,8 22,31 49,50 27,20 52,42 55,50 3,8 17,15 30,15 25,0 25,0 8,-30 z m -332,-337 c 0,-14 -19,-38 -25,-32 -8,8 5,39 16,39 5,0 9,-3 9,-7 z"
       id="path10"
       inkscape:connector-curvature="0" />
    <path
       d="m 15035,8940 c 3,-5 8,-10 11,-10 2,0 4,5 4,10 0,6 -5,10 -11,10 -5,0 -7,-4 -4,-10 z"
       id="path12"
       inkscape:connector-curvature="0" />
    <path
       d="m 17190,8824 c -68,-18 -97,-24 -132,-28 -57,-8 -214,-38 -238,-47 -35,-12 -142,-27 -228,-33 -40,-2 -79,-9 -87,-16 -8,-7 -20,-10 -27,-7 -7,2 -33,-2 -58,-9 -25,-8 -59,-14 -77,-14 -17,0 -34,-4 -38,-9 -3,-5 -31,-13 -63,-17 -31,-3 -64,-10 -73,-15 -11,-6 -23,-1 -39,16 -22,24 -45,28 -190,39 -69,5 -206,38 -248,60 -17,9 -36,25 -42,35 -18,35 -175,49 -243,22 -38,-15 -107,-73 -107,-89 0,-8 -10,-28 -22,-45 -18,-25 -23,-46 -23,-100 -1,-55 -4,-70 -21,-81 -31,-22 -103,-39 -171,-41 -41,-1 -69,-7 -80,-17 -10,-9 -76,-30 -148,-48 -71,-18 -150,-41 -173,-52 -24,-11 -67,-23 -95,-28 -29,-5 -68,-14 -87,-20 -19,-6 -67,-12 -105,-15 -73,-4 -89,-7 -143,-31 -18,-8 -45,-14 -60,-14 -16,0 -33,-5 -40,-12 -6,-6 -30,-12 -54,-13 -24,-2 -88,-14 -143,-28 -55,-14 -131,-29 -170,-32 -110,-10 -204,-29 -365,-75 -56,-15 -141,-36 -338,-80 -23,-6 -63,-10 -88,-10 -26,0 -67,-10 -97,-24 -78,-35 -85,-37 -180,-46 -49,-5 -94,-13 -100,-18 -15,-12 -59,-22 -122,-27 -75,-7 -101,-12 -207,-40 -54,-13 -135,-32 -180,-40 -46,-8 -103,-20 -128,-26 -25,-5 -85,-14 -135,-18 -49,-5 -97,-12 -105,-15 -17,-7 -113,87 -124,121 -6,19 -139,128 -187,154 -26,13 -230,14 -274,1 -116,-35 -202,-83 -189,-104 3,-5 -7,-13 -23,-19 -15,-6 -35,-16 -43,-24 -8,-7 -26,-16 -40,-20 -27,-7 -103,-55 -108,-67 -2,-5 -12,-8 -22,-8 -29,0 -80,-48 -80,-77 0,-22 40,-87 64,-104 22,-16 174,20 209,49 13,12 20,13 29,4 16,-16 44,-15 73,4 17,11 52,16 127,17 57,1 111,-1 120,-4 22,-6 35,-19 20,-19 -6,0 -13,-9 -17,-19 -7,-23 -118,-61 -177,-61 -52,0 -286,-112 -298,-144 -4,-11 -18,-29 -29,-38 -27,-22 -27,-69 -2,-92 17,-15 27,-16 68,-8 38,9 51,8 64,-4 18,-16 42,-18 67,-5 48,25 141,43 199,38 56,-5 63,-4 68,15 5,15 12,18 28,13 28,-8 50,-13 60,-14 4,-1 7,-7 7,-15 0,-16 -21,-26 -56,-26 -27,0 -96,-30 -165,-72 -25,-15 -53,-28 -60,-28 -8,0 -30,-9 -50,-19 -19,-11 -55,-25 -78,-32 -32,-9 -49,-23 -67,-50 -13,-21 -28,-40 -34,-44 -17,-10 -11,-70 9,-92 23,-24 111,-39 140,-23 11,5 33,7 50,4 20,-4 44,0 68,11 21,10 52,20 70,22 17,2 50,10 73,18 24,8 49,15 56,15 30,0 124,78 199,166 44,51 83,93 87,94 4,0 45,35 91,78 91,86 195,152 272,172 28,7 67,21 88,31 21,10 44,16 52,13 7,-3 24,1 37,9 13,9 66,25 118,37 52,12 110,28 128,36 18,8 40,14 49,14 25,0 118,31 200,66 17,8 37,14 45,14 8,0 41,11 74,24 32,13 86,29 119,35 63,13 99,26 126,48 9,7 52,16 95,19 43,3 94,13 112,21 18,9 35,13 38,10 8,-8 96,22 115,39 13,12 22,13 36,5 21,-10 97,3 121,22 7,5 15,7 19,4 3,-3 21,0 40,8 19,8 39,12 44,9 5,-3 30,4 54,16 24,12 49,19 55,15 6,-4 25,2 43,13 37,21 122,43 172,43 11,0 38,5 60,11 22,6 48,12 57,13 10,1 26,9 36,19 11,9 26,14 35,10 9,-3 39,5 67,19 27,14 59,23 69,20 10,-3 32,2 49,11 17,9 50,16 74,16 46,1 105,12 153,28 17,6 56,16 88,23 31,7 62,18 68,26 6,7 26,13 44,13 19,0 80,15 137,34 91,29 114,33 195,31 l 92,-2 33,34 c 17,18 39,33 48,33 9,0 25,7 36,15 30,23 41,18 55,-22 6,-20 29,-53 51,-73 29,-27 41,-46 43,-71 1,-19 6,-34 11,-34 5,0 29,-20 53,-43 28,-27 47,-40 53,-34 6,6 6,17 -1,30 -14,27 -14,29 4,36 8,3 30,-3 47,-13 27,-16 42,-18 83,-11 28,5 55,9 62,9 12,1 37,21 176,136 85,72 120,95 143,95 10,0 25,6 33,13 9,7 34,20 57,29 34,13 47,13 85,2 58,-18 78,-17 86,2 5,14 43,53 86,90 7,6 31,14 53,18 21,3 48,8 59,11 121,29 223,45 318,50 91,5 147,24 147,50 0,20 10,19 25,-2 11,-15 17,-16 56,-3 24,7 57,22 72,33 15,10 34,17 41,14 18,-7 97,13 117,29 8,8 29,16 46,20 38,7 71,57 53,79 -16,19 -86,18 -160,-1 z m -1592,-180 c 31,-6 28,-19 -9,-35 -29,-12 -33,-11 -50,10 -32,39 -25,42 59,25 z m 647,-134 c 0,-15 -31,-37 -40,-28 -4,3 -1,16 5,28 12,22 35,23 35,0 z m -655,-185 c -14,-17 -40,-20 -40,-6 0,8 18,16 44,20 5,0 3,-6 -4,-14 z m 180,0 c 0,-8 -3,-15 -8,-15 -4,0 -29,-18 -56,-40 -47,-39 -71,-50 -64,-30 3,11 109,98 121,99 4,1 7,-6 7,-14 z m -4534,-459 c 19,-14 19,-15 -1,-22 -11,-4 -58,-24 -104,-45 -82,-38 -118,-48 -107,-30 3,5 18,12 33,16 16,3 42,17 59,30 17,13 34,22 36,20 3,-3 15,6 28,20 27,29 30,30 56,11 z m 144,-84 c 0,-3 -12,-18 -26,-33 -22,-23 -31,-26 -72,-22 -74,7 -78,10 -54,36 17,18 33,22 86,24 37,0 66,-2 66,-5 z m 148,-45 c 23,-23 42,-45 42,-49 0,-17 -29,-7 -35,12 -7,23 -51,60 -72,60 -10,0 -7,-13 12,-50 28,-55 29,-60 15,-60 -5,0 -10,6 -10,14 0,7 -11,21 -25,30 -14,9 -22,22 -19,30 3,8 -3,23 -14,34 -26,26 -22,29 25,24 28,-3 50,-15 81,-45 z m 172,-107 c 0,-4 -21,-20 -46,-34 -25,-14 -44,-22 -42,-18 27,55 31,59 59,60 16,0 29,-3 29,-8 z m -330,-175 c 0,-18 5,-25 20,-25 22,0 70,-20 70,-29 0,-3 -9,-17 -19,-30 -14,-19 -22,-21 -37,-13 -41,22 -62,56 -57,90 6,38 23,43 23,7 z m -5,-275 c 10,-17 -37,-69 -82,-90 -62,-29 -70,-25 -29,17 20,21 36,41 36,45 0,7 49,37 62,38 4,0 10,-4 13,-10 z"
       id="path14"
       inkscape:connector-curvature="0" />
    <path
       d="m 10170,8565 c 0,-8 4,-15 9,-15 5,0 11,7 15,15 3,9 0,15 -9,15 -8,0 -15,-7 -15,-15 z"
       id="path16"
       inkscape:connector-curvature="0" />
    <path
       d="m 14850,8093 c -14,-2 -40,-11 -58,-19 -19,-9 -59,-20 -90,-24 -32,-5 -90,-13 -131,-19 -41,-7 -79,-15 -85,-20 -6,-5 -40,-16 -76,-25 -56,-13 -86,-19 -195,-40 -11,-2 -54,-9 -95,-16 -41,-6 -93,-20 -115,-30 -22,-10 -53,-21 -69,-25 -16,-3 -47,-15 -68,-25 -21,-10 -47,-16 -57,-13 -11,3 -34,-2 -53,-10 -18,-8 -44,-17 -58,-20 -14,-3 -50,-13 -80,-22 -30,-9 -79,-23 -109,-31 -30,-8 -75,-24 -99,-34 -25,-11 -55,-20 -69,-20 -13,0 -49,-8 -81,-19 -59,-19 -70,-21 -232,-47 -186,-30 -276,-41 -358,-43 -45,-1 -100,-8 -121,-16 -22,-7 -41,-11 -44,-8 -3,2 -29,-2 -59,-11 -29,-8 -87,-20 -128,-27 -41,-7 -91,-18 -110,-26 -19,-8 -80,-25 -135,-38 -59,-13 -115,-33 -137,-47 -20,-14 -49,-30 -64,-37 -44,-19 -109,-126 -134,-220 -14,-52 -101,-140 -165,-167 -22,-9 -47,-20 -55,-24 -8,-5 -46,-25 -85,-44 -38,-20 -77,-40 -85,-46 -51,-32 -169,-80 -196,-80 -18,0 -35,-4 -39,-9 -5,-10 -104,-23 -165,-22 -195,3 -226,6 -254,29 -16,12 -34,22 -40,22 -7,0 -32,14 -55,32 -45,33 -56,35 -166,25 -65,-5 -177,-45 -270,-95 -32,-18 -62,-32 -67,-32 -5,0 -25,-11 -46,-25 -21,-14 -62,-32 -92,-41 -30,-8 -77,-26 -104,-40 -28,-13 -58,-24 -67,-24 -10,0 -32,-12 -50,-27 -34,-29 -90,-53 -124,-53 -11,0 -38,-10 -60,-21 -22,-12 -67,-28 -100,-35 -33,-7 -69,-16 -80,-20 -35,-12 57,50 125,85 35,18 76,42 90,53 49,37 96,66 184,112 49,26 109,63 134,82 55,42 436,238 552,284 25,10 70,31 100,47 46,23 55,33 55,54 0,15 8,36 18,47 23,26 16,39 -26,47 -110,21 -129,28 -139,51 -8,16 -20,24 -37,24 -14,0 -39,7 -54,15 -15,8 -45,16 -66,19 -21,2 -50,12 -64,21 -22,14 -29,14 -49,4 -13,-7 -31,-12 -41,-10 -17,2 -54,-26 -144,-109 -18,-17 -35,-30 -38,-30 -7,0 -117,-82 -145,-107 -8,-8 -37,-28 -65,-45 -27,-17 -73,-46 -101,-64 -28,-19 -53,-34 -57,-34 -3,0 -34,-13 -69,-30 -65,-30 -138,-56 -246,-86 -35,-9 -66,-23 -69,-31 -4,-10 -14,-12 -34,-8 -35,8 -67,-9 -71,-37 -4,-27 -35,-27 -57,0 -9,12 -15,13 -18,5 -3,-8 -15,-10 -32,-7 -33,7 -170,-13 -186,-26 -24,-20 -369,-13 -495,10 -36,6 -72,17 -80,25 -8,7 -48,23 -88,35 -40,13 -75,27 -78,31 -3,5 -17,9 -31,9 -28,0 -76,14 -130,37 -96,41 -115,44 -137,25 -24,-20 -66,-18 -66,4 0,21 -23,17 -40,-6 -9,-12 -26,-20 -42,-20 -21,0 -31,-7 -38,-24 -5,-13 -13,-27 -18,-30 -14,-8 8,-107 28,-131 10,-11 15,-26 13,-33 -7,-17 105,-123 187,-177 25,-16 63,-43 85,-60 81,-63 141,-94 190,-100 26,-3 58,-13 69,-21 27,-18 55,-18 62,1 9,22 23,18 34,-9 8,-21 17,-25 74,-31 35,-4 69,-4 74,-1 6,3 23,1 39,-5 36,-14 154,-14 180,-1 10,6 25,7 32,3 7,-4 23,-6 37,-3 13,2 24,0 24,-6 0,-11 43,-9 110,7 25,6 66,11 92,11 26,0 49,4 52,9 3,4 26,11 51,14 25,4 89,21 140,39 93,31 128,32 89,3 -10,-8 -41,-22 -69,-31 -27,-9 -68,-25 -91,-35 -22,-10 -43,-19 -47,-19 -3,0 -25,-12 -49,-27 -74,-48 -82,-53 -104,-62 -12,-5 -38,-26 -58,-47 -32,-33 -36,-41 -29,-73 6,-35 7,-55 2,-76 -1,-6 2,-24 6,-42 7,-29 15,-35 79,-59 96,-35 155,-62 189,-86 16,-11 30,-18 33,-15 18,17 194,-55 201,-82 3,-12 17,-16 51,-17 50,0 144,-12 151,-20 2,-2 11,2 20,10 24,20 61,27 61,10 0,-7 12,-16 28,-19 15,-3 42,-10 60,-16 40,-13 127,12 142,42 14,25 28,24 49,-2 16,-20 19,-20 54,-6 20,9 37,14 37,11 0,-6 31,9 155,77 60,33 155,102 224,164 50,44 69,55 96,55 19,0 35,5 35,11 0,7 7,8 18,4 9,-4 41,-7 71,-7 30,1 61,-3 70,-7 10,-6 31,-4 55,4 22,8 43,12 47,9 5,-2 25,2 45,11 20,8 48,15 63,15 14,0 46,10 71,21 25,11 53,22 63,24 42,9 134,62 186,108 31,27 67,55 81,62 14,7 41,35 61,62 33,42 57,85 163,284 27,50 92,113 107,104 5,-4 9,-13 9,-21 0,-8 4,-14 8,-14 4,0 23,-33 41,-72 63,-137 145,-299 153,-304 4,-3 8,-13 8,-23 0,-10 9,-30 20,-44 11,-14 20,-36 20,-49 0,-13 9,-33 19,-45 17,-18 33,-45 81,-134 8,-15 24,-38 35,-52 20,-23 43,-62 73,-122 9,-16 18,-32 21,-35 4,-3 12,-16 19,-30 25,-52 60,-104 71,-108 6,-2 11,-9 11,-17 0,-7 7,-18 15,-25 8,-7 15,-19 15,-26 0,-8 9,-24 20,-37 29,-33 90,-153 90,-177 0,-11 4,-20 9,-20 12,0 63,-82 112,-178 21,-41 44,-81 51,-90 7,-10 22,-34 32,-55 11,-21 29,-48 41,-60 12,-12 29,-42 39,-67 10,-25 24,-52 31,-60 7,-8 32,-53 55,-100 23,-47 54,-100 68,-119 80,-101 86,-113 74,-156 -16,-62 10,-99 64,-90 24,4 35,0 54,-20 16,-17 34,-25 56,-25 17,0 37,-7 44,-15 23,-28 58,-17 106,33 26,26 51,59 56,74 5,15 25,37 44,49 19,12 42,32 50,45 9,13 25,26 35,29 11,4 24,17 29,29 5,13 30,36 57,51 51,30 60,37 135,110 26,25 54,45 62,45 9,0 22,10 31,23 30,45 221,234 243,241 12,4 27,17 34,29 6,12 19,28 30,35 10,7 18,20 18,28 0,7 30,47 68,86 97,104 163,189 248,318 20,30 56,76 79,101 23,25 54,63 69,85 14,21 39,57 55,79 16,22 61,96 101,165 39,69 76,132 81,140 5,8 13,24 18,35 5,11 42,88 83,170 41,83 78,168 82,189 4,21 18,48 32,61 27,25 31,37 9,29 -19,-8 -19,-5 2,42 9,22 18,48 20,59 2,11 12,47 23,80 48,152 87,313 95,399 3,33 10,66 14,75 16,31 35,195 22,199 -13,4 -15,42 -2,42 5,0 14,-7 21,-15 19,-23 30,-18 30,14 0,30 -21,46 -37,30 -14,-14 -38,17 -26,34 6,6 13,46 16,87 11,133 28,264 38,281 15,29 10,64 -14,100 -20,30 -29,34 -67,35 -25,1 -67,4 -95,6 -27,3 -61,3 -75,1 z m 116,-128 c 10,-26 -5,-85 -22,-85 -17,0 -94,77 -94,95 0,3 25,5 55,5 40,0 57,-4 61,-15 z m -591,-123 c -29,-18 -51,-25 -120,-38 -16,-3 -38,-10 -48,-16 -10,-5 -21,-7 -24,-4 -10,10 19,36 38,36 11,0 27,4 37,9 34,17 78,29 112,30 l 35,1 z m -230,-62 c -3,-5 -11,-10 -16,-10 -6,0 -7,5 -4,10 3,6 11,10 16,10 6,0 7,-4 4,-10 z m -115,-51 c -24,-17 -59,-38 -79,-47 -38,-17 -141,-32 -141,-22 0,8 46,30 60,30 5,0 34,11 64,25 30,14 61,25 70,25 8,0 18,5 21,10 3,6 16,10 27,10 17,0 12,-7 -22,-31 z m 695,-26 c 0,-14 10,-19 42,-24 30,-4 57,-17 90,-46 61,-51 74,-77 71,-136 -2,-26 0,-47 5,-47 4,0 7,-4 7,-10 0,-5 -7,-10 -15,-10 -18,0 -18,-1 -5,-34 5,-14 6,-28 1,-30 -14,-9 -34,-95 -26,-113 8,-19 7,-62 -2,-77 -3,-4 -7,-27 -9,-51 -2,-23 -13,-78 -25,-121 -12,-44 -24,-90 -27,-104 -2,-14 -8,-29 -12,-35 -4,-5 -19,-47 -34,-92 -22,-68 -106,-248 -135,-288 -4,-5 -15,-35 -26,-65 -10,-30 -27,-66 -37,-79 -10,-13 -18,-28 -18,-34 0,-6 -13,-31 -29,-56 -16,-25 -35,-64 -42,-85 -8,-22 -21,-41 -29,-43 -8,-3 -35,-32 -60,-65 -25,-33 -73,-90 -107,-126 -53,-57 -64,-64 -78,-52 -21,17 -29,7 -14,-18 10,-16 10,-26 0,-48 -8,-17 -9,-30 -2,-37 11,-11 4,-37 -11,-37 -5,0 -7,4 -4,8 2,4 1,14 -3,21 -7,10 -14,6 -31,-17 -13,-17 -27,-29 -32,-26 -4,3 -11,-3 -15,-13 -13,-37 -136,-175 -313,-353 -69,-69 -149,-156 -179,-194 -30,-38 -69,-74 -85,-81 -17,-8 -44,-28 -61,-45 -16,-18 -46,-40 -65,-50 -33,-17 -183,-163 -249,-241 -17,-20 -56,-50 -88,-68 -32,-18 -76,-45 -98,-61 -51,-37 -68,-37 -97,0 -13,17 -40,50 -60,75 -20,24 -40,54 -43,66 -4,11 -18,37 -31,56 -13,20 -24,44 -24,53 0,10 -7,24 -16,31 -9,7 -33,48 -55,92 -21,43 -48,90 -59,104 -11,14 -20,31 -20,37 0,6 -16,35 -35,64 -20,28 -40,62 -45,74 -6,13 -24,43 -40,68 -45,70 -90,152 -90,165 0,7 -11,29 -25,49 -14,20 -25,41 -25,47 0,5 -26,47 -57,92 -31,45 -69,101 -85,124 -16,23 -34,57 -40,75 -6,18 -22,46 -35,62 -13,15 -30,42 -38,60 -9,17 -33,60 -55,96 -23,36 -59,103 -81,150 -23,47 -85,175 -139,285 -144,294 -141,275 -42,358 68,57 84,65 140,75 43,8 71,8 90,1 33,-13 159,-9 227,6 28,7 67,10 88,7 20,-2 44,1 51,7 8,7 25,9 40,5 15,-3 32,-2 39,3 6,6 35,16 62,23 28,7 61,22 74,32 13,10 31,18 40,18 10,0 32,11 51,25 19,14 39,25 46,25 6,0 52,26 100,58 49,31 109,66 134,77 25,10 57,30 72,44 15,13 31,22 34,18 4,-4 13,2 21,12 17,25 108,44 170,36 93,-12 166,-15 177,-6 6,4 31,12 56,15 42,7 60,8 93,5 6,0 48,9 92,20 60,15 85,27 101,47 12,15 26,24 32,20 6,-3 12,-1 14,5 2,6 16,13 30,14 51,6 93,25 121,55 16,17 41,32 55,35 15,3 47,16 72,29 25,13 66,26 91,29 25,3 88,20 139,37 111,35 123,37 115,11 -4,-15 1,-19 32,-24 32,-6 42,-2 68,22 16,16 44,31 60,34 17,3 46,10 65,14 44,12 95,-7 95,-34 z m -285,7 c 0,-5 -4,-10 -10,-10 -5,0 -10,5 -10,10 0,6 5,10 10,10 6,0 10,-4 10,-10 z m -1090,-126 c 0,-8 -5,-12 -10,-9 -6,4 -8,11 -5,16 9,14 15,11 15,-7 z m -115,-24 c 9,-14 -73,-50 -115,-50 -24,0 -54,-12 -90,-35 -66,-43 -92,-45 -109,-8 -11,23 -10,29 5,40 10,7 38,13 63,13 48,1 217,33 228,44 8,8 11,8 18,-4 z m -1265,-304 c 0,-17 -33,-46 -53,-46 -11,0 -25,-7 -32,-17 -22,-30 -25,3 -3,46 12,25 26,40 33,37 8,-3 16,3 20,12 6,15 8,15 21,-2 8,-11 14,-24 14,-30 z m 720,22 c 0,-18 -62,-78 -81,-78 -9,0 -22,-7 -29,-15 -7,-8 -23,-15 -36,-15 -12,0 -26,-5 -29,-10 -15,-25 -86,-51 -120,-44 -45,8 -49,16 -25,42 11,12 20,30 20,42 0,24 18,26 35,4 11,-15 14,-15 39,1 15,10 25,24 22,31 -6,17 20,38 38,31 9,-4 12,-14 9,-25 -4,-17 -1,-19 22,-14 16,3 30,14 35,28 7,17 19,24 47,27 21,2 41,4 46,5 4,1 7,-3 7,-10 z m -2210,-87 c 0,-5 -7,-11 -15,-15 -15,-5 -20,5 -8,17 9,10 23,9 23,-2 z m -121,-20 c 12,-8 12,-12 2,-25 -16,-19 -22,-20 -46,-3 -33,25 8,51 44,28 z m -79,-25 c 0,-29 -19,-44 -31,-25 -5,8 -9,9 -9,4 0,-6 -9,-11 -20,-12 -31,-3 -24,22 13,40 43,21 47,21 47,-7 z m 2060,-15 c 0,-10 -24,-21 -43,-21 -7,0 -3,7 7,15 22,17 36,19 36,6 z M 9291,6827 c -1,-12 -15,-9 -19,4 -3,6 1,10 8,8 6,-3 11,-8 11,-12 z m -1353,-36 c 20,-11 54,-25 75,-31 52,-16 48,-35 -5,-26 -40,7 -85,11 -181,14 -27,2 -45,10 -62,28 -14,15 -25,30 -25,35 0,16 160,1 198,-20 z m 2574,-8 c 24,-28 26,-45 10,-83 -16,-37 -19,-51 -47,-190 -10,-51 -33,-118 -58,-169 -25,-52 -41,-100 -42,-124 -1,-32 -6,-42 -27,-53 -15,-8 -29,-26 -33,-42 -6,-29 -56,-92 -73,-92 -5,0 -12,-9 -15,-20 -3,-11 -12,-20 -21,-20 -26,0 -19,15 24,49 28,22 43,44 51,74 6,23 18,56 26,74 10,22 12,37 5,49 -7,12 -5,28 5,51 7,19 11,43 8,54 -5,15 -1,22 14,26 12,3 21,11 21,18 0,8 7,21 16,29 12,13 14,22 6,45 -9,24 -7,32 9,47 18,17 26,64 12,77 -3,4 -14,0 -24,-8 -16,-15 -17,-13 -16,34 1,40 -4,55 -21,71 -12,12 -22,30 -22,41 0,26 70,58 171,78 3,0 13,-7 21,-16 z m 908,-12 c 0,-10 -63,-62 -95,-78 -35,-18 -84,-23 -110,-11 -35,16 -31,25 18,36 23,6 71,22 107,35 77,29 80,30 80,18 z m -3335,-42 c 11,-17 -1,-21 -15,-4 -8,9 -8,15 -2,15 6,0 14,-5 17,-11 z m 2557,-56 c 24,-22 23,-54 -2,-60 -11,-3 -20,-13 -20,-23 0,-9 -9,-25 -19,-34 -19,-17 -19,-16 -17,31 3,44 22,103 34,103 3,0 14,-7 24,-17 z m 498,7 c 0,-5 -7,-10 -15,-10 -8,0 -15,5 -15,10 0,6 7,10 15,10 8,0 15,-4 15,-10 z m -2405,-10 c -3,-5 -13,-10 -21,-10 -8,0 -12,5 -9,10 3,6 13,10 21,10 8,0 12,-4 9,-10 z m -522,-153 c 62,-10 79,-22 60,-41 -4,-4 -8,-15 -8,-24 0,-11 -10,-18 -27,-20 -16,-2 -28,1 -28,6 0,10 -39,25 -70,27 -8,1 -28,7 -43,13 -16,7 -33,10 -38,6 -5,-3 -9,-1 -9,4 0,6 11,13 25,16 14,4 28,13 32,22 3,10 11,13 22,8 9,-4 46,-12 84,-17 z m 188,-8 c 16,-8 18,-13 9,-24 -9,-10 -18,-11 -41,-3 -28,9 -28,11 -12,24 22,16 20,16 44,3 z m 737,-1 c 42,3 22,-13 -40,-32 -35,-10 -71,-22 -81,-28 -10,-5 -67,-16 -125,-24 -59,-9 -129,-19 -156,-23 -70,-11 -285,-6 -298,7 -15,15 0,36 17,22 9,-7 45,-6 126,5 63,9 128,17 144,18 20,1 29,7 27,16 -2,8 0,21 3,30 5,13 11,11 30,-13 l 23,-28 83,12 c 46,7 102,15 124,17 22,3 44,12 48,20 6,9 16,11 30,7 12,-4 32,-7 45,-6 z m 672,-3 c 0,-7 -81,-65 -92,-65 -20,0 -5,20 35,44 41,25 57,31 57,21 z m -1340,-20 c 0,-8 -4,-15 -10,-15 -5,0 -10,7 -10,15 0,8 5,15 10,15 6,0 10,-7 10,-15 z m 270,-5 c 0,-5 -4,-10 -10,-10 -5,0 -10,5 -10,10 0,6 5,10 10,10 6,0 10,-4 10,-10 z m 780,-90 c -20,-13 -43,-13 -35,0 3,6 16,10 28,10 18,0 19,-2 7,-10 z m -1210,-30 c 0,-5 -4,-10 -10,-10 -5,0 -10,5 -10,10 0,6 5,10 10,10 6,0 10,-4 10,-10 z m 1115,-15 c -25,-21 -85,-35 -85,-20 0,9 75,44 95,44 17,0 16,-3 -10,-24 z m 752,-3 c -10,-10 -17,-23 -17,-28 -1,-13 -47,-64 -60,-64 -17,0 -11,14 20,43 16,16 29,32 27,37 -2,10 36,41 42,34 2,-2 -3,-12 -12,-22 z m 4513,-61 c 0,-6 -4,-13 -10,-16 -5,-3 -10,1 -10,9 0,9 5,16 10,16 6,0 10,-4 10,-9 z m -3754,-26 c 24,-23 13,-46 -31,-62 -84,-30 -141,-46 -170,-45 -16,1 -56,1 -87,2 -68,0 -121,17 -98,29 17,10 56,8 66,-2 12,-12 44,-8 82,12 24,12 49,17 70,13 33,-4 97,22 130,55 17,16 20,16 38,-2 z M 9150,6154 c 0,-8 -63,-64 -73,-64 -4,0 7,15 25,34 31,33 48,43 48,30 z m 470,-103 c 0,-3 -23,-22 -50,-41 -27,-19 -50,-38 -50,-42 0,-5 -6,-8 -14,-8 -8,0 -16,-7 -20,-15 -3,-8 -12,-15 -19,-15 -8,0 -20,-7 -27,-15 -15,-18 -30,-20 -30,-4 0,19 95,115 132,133 24,13 78,17 78,7 z m 562,-20 c -9,-5 -11,-17 -6,-34 5,-23 3,-27 -15,-27 -14,0 -21,6 -21,19 0,22 25,51 43,51 8,0 8,-3 -1,-9 z m -822,-51 c 0,-5 -5,-10 -11,-10 -5,0 -7,5 -4,10 3,6 8,10 11,10 2,0 4,-4 4,-10 z m -84,-9 c -4,-5 3,-7 14,-4 11,3 26,3 35,-1 27,-10 -3,-56 -36,-56 -15,0 -31,5 -34,10 -3,6 -15,10 -26,10 -24,0 -37,29 -18,41 18,12 72,12 65,0 z m -91,-11 c 3,-5 -1,-10 -9,-10 -9,0 -16,5 -16,10 0,6 4,10 9,10 6,0 13,-4 16,-10 z m 460,-107 c 6,-20 3,-23 -24,-23 -40,0 -50,19 -21,42 25,20 34,16 45,-19 z m 335,24 c 0,-14 -20,-37 -32,-37 -12,0 -10,24 4,38 16,16 28,15 28,-1 z m -132,-49 c -6,-19 -79,-41 -92,-28 -5,5 -18,10 -28,10 -10,0 -18,5 -18,11 0,7 7,8 18,3 23,-10 73,-7 86,6 14,14 39,13 34,-2 z m 4202,-378 c -12,-23 -38,-61 -59,-83 -20,-23 -45,-54 -54,-69 -10,-16 -23,-28 -30,-28 -6,0 -32,-18 -57,-40 -75,-66 -80,-70 -85,-70 -9,0 46,74 65,87 11,8 20,20 20,28 0,7 17,22 38,32 20,11 46,35 57,53 11,19 39,53 63,76 23,23 42,50 42,60 0,13 3,15 11,7 8,-8 5,-23 -11,-53 z m -750,-757 c 0,-5 -23,-28 -51,-53 -28,-25 -69,-62 -91,-82 -22,-21 -46,-38 -52,-38 -7,0 -27,-16 -45,-37 -25,-28 -35,-33 -44,-24 -9,10 -5,18 19,39 59,50 109,87 137,102 15,7 45,33 65,56 34,38 62,55 62,37 z"
       id="path18"
       inkscape:connector-curvature="0" />
    <path
       d="m 13451,7344 c 0,-11 3,-14 6,-6 3,7 2,16 -1,19 -3,4 -6,-2 -5,-13 z"
       id="path20"
       inkscape:connector-curvature="0" />
    <path
       d="m 12960,7260 c 0,-5 7,-10 16,-10 8,0 12,5 9,10 -3,6 -10,10 -16,10 -5,0 -9,-4 -9,-10 z"
       id="path22"
       inkscape:connector-curvature="0" />
    <path
       d="m 11444,6255 c -41,-43 -62,-57 -108,-70 -86,-25 -164,-62 -210,-99 -24,-20 -63,-39 -94,-46 -28,-6 -54,-16 -57,-21 -3,-4 -42,-20 -85,-33 -87,-28 -217,-40 -296,-28 -76,12 -132,0 -158,-32 -42,-56 -109,-115 -136,-121 -14,-3 -57,-28 -95,-56 -37,-27 -80,-52 -94,-55 -37,-8 -122,-45 -150,-66 -13,-10 -31,-18 -40,-18 -9,0 -36,-12 -61,-26 -60,-34 -150,-53 -240,-49 -197,9 -296,19 -317,33 -13,8 -29,12 -37,9 -8,-3 -33,3 -55,14 -22,10 -47,19 -56,19 -8,0 -15,5 -15,10 0,6 -12,16 -26,22 -17,8 -24,18 -21,30 7,26 -24,23 -59,-7 l -28,-24 -24,22 c -19,18 -21,23 -8,25 12,3 14,8 6,21 -5,10 -6,21 -3,25 3,3 0,6 -8,6 -8,0 -20,9 -27,20 -17,27 -28,25 -66,-12 -46,-46 -45,-97 4,-156 19,-23 40,-42 46,-42 7,0 26,-22 43,-49 18,-27 97,-114 177,-193 80,-78 166,-169 190,-201 24,-32 75,-87 112,-122 50,-47 72,-76 81,-106 7,-23 22,-56 34,-73 71,-106 74,-116 81,-276 3,-74 15,-178 26,-230 11,-52 22,-108 24,-125 3,-16 9,-55 15,-85 6,-30 15,-93 20,-140 16,-137 42,-250 75,-320 l 31,-65 60,-1 c 33,-1 88,-11 122,-23 34,-12 73,-21 86,-21 13,0 45,-11 72,-25 26,-14 68,-28 94,-30 67,-6 129,-22 189,-50 29,-14 59,-25 67,-25 7,0 20,-8 27,-17 24,-33 212,-117 318,-143 168,-41 205,-44 232,-23 7,5 47,16 88,23 80,14 101,22 129,48 10,9 47,39 82,66 35,27 98,84 140,128 63,65 81,78 108,78 21,0 33,6 37,18 20,62 47,101 131,188 52,55 98,106 103,114 8,15 19,351 21,660 1,96 -4,199 -14,270 -9,63 -21,159 -27,212 -5,53 -15,119 -21,145 -36,155 -53,220 -64,233 -6,8 -12,31 -14,50 -1,19 -5,37 -10,40 -9,6 -21,49 -27,104 -3,21 -21,68 -41,105 -30,55 -34,73 -31,113 3,26 2,51 -2,55 -4,4 -17,35 -28,68 -11,33 -28,77 -36,97 -9,21 -16,57 -16,82 0,33 -7,52 -25,74 -16,19 -25,42 -25,64 0,36 -25,69 -51,67 -8,0 -37,-24 -65,-54 z m 78,-282 c 6,-7 8,-19 5,-27 -4,-11 -1,-13 10,-9 13,5 15,1 9,-32 -8,-38 -31,-67 -51,-61 -5,1 -10,26 -10,54 0,28 -3,54 -7,57 -8,8 0,34 16,54 9,12 12,11 15,-5 2,-10 8,-25 13,-31 z m -330,-23 c -26,-28 -90,-75 -151,-110 -14,-8 -31,-22 -38,-30 -16,-20 -17,0 -1,37 7,15 12,35 13,43 0,8 9,14 19,13 11,-1 47,16 80,38 33,21 70,39 82,39 23,0 23,0 -4,-30 z m -385,-131 c -6,-10 -20,-22 -29,-25 -10,-3 -19,-11 -19,-17 -4,-28 -10,-104 -10,-124 -1,-13 -5,-23 -10,-23 -5,0 -8,-15 -7,-32 1,-18 -1,-59 -6,-90 -6,-49 -5,-61 14,-85 29,-40 43,-135 44,-297 1,-124 3,-140 20,-150 58,-35 90,-79 70,-99 -3,-3 -8,-76 -10,-162 -3,-113 -8,-163 -19,-185 -12,-24 -14,-51 -8,-157 8,-120 9,-128 28,-125 11,1 51,5 88,9 38,3 75,12 82,20 16,16 35,17 35,2 0,-6 6,-9 14,-6 7,3 25,-1 40,-8 24,-13 27,-12 46,15 11,16 37,34 58,40 20,6 54,19 75,27 24,11 41,13 47,7 19,-19 -21,-53 -99,-83 -44,-17 -113,-47 -154,-66 -40,-19 -80,-35 -89,-35 -16,0 -49,-33 -67,-67 -6,-12 -11,-72 -12,-135 0,-62 -3,-142 -7,-178 -8,-74 -5,-113 9,-105 16,10 10,-29 -10,-66 -11,-20 -17,-46 -14,-57 2,-11 0,-30 -7,-42 -6,-11 -14,-49 -17,-83 -5,-62 -16,-87 -37,-87 -17,0 -119,43 -149,63 -15,9 -29,17 -32,17 -3,0 -15,9 -27,19 -15,15 -19,27 -14,45 8,33 18,33 34,-1 15,-34 60,-69 73,-56 4,4 5,21 1,36 -4,15 -4,58 -1,95 26,269 30,337 24,420 -5,66 -12,98 -25,114 -16,21 -20,21 -61,8 -24,-7 -64,-17 -89,-21 -25,-3 -68,-16 -95,-26 -61,-24 -249,-39 -289,-23 -29,11 -108,14 -145,6 -13,-3 -34,-12 -47,-21 -33,-21 -49,-19 -62,11 -9,18 -19,24 -35,22 -18,-2 -23,-10 -25,-45 -3,-38 1,-47 38,-87 23,-25 51,-48 62,-52 16,-5 18,-11 13,-32 -3,-15 -14,-38 -23,-52 -9,-14 -16,-33 -17,-43 0,-15 -9,-20 -41,-22 -62,-5 -67,11 -98,285 -8,69 -26,186 -40,260 -14,74 -26,140 -26,146 0,13 66,14 87,1 6,-4 55,-10 108,-14 91,-6 97,-8 131,-40 34,-32 38,-33 94,-28 43,4 60,2 70,-10 19,-23 88,-33 150,-21 93,18 115,27 146,57 36,35 64,34 64,-3 -1,-37 -61,-69 -126,-67 -45,2 -59,-2 -79,-21 -21,-20 -27,-21 -40,-10 -14,12 -18,11 -25,-1 -8,-12 -12,-10 -24,7 -14,20 -18,20 -82,8 -64,-12 -94,-10 -94,5 0,4 -14,8 -31,8 -19,0 -37,7 -45,17 -7,10 -17,15 -23,12 -6,-4 -38,-8 -70,-10 -66,-3 -91,-17 -91,-51 0,-36 26,-49 104,-51 65,-2 128,-16 208,-46 14,-5 54,-11 89,-13 57,-3 70,1 150,40 53,26 96,41 108,38 12,-3 31,4 47,16 15,12 35,21 45,21 9,0 27,11 38,25 18,24 19,36 14,178 -3,84 -5,187 -4,230 l 1,77 h -64 c -68,0 -102,-10 -151,-46 -16,-12 -57,-30 -90,-39 -33,-10 -78,-26 -100,-35 -53,-24 -87,-31 -161,-34 -34,-1 -68,-7 -76,-14 -21,-17 -119,-24 -136,-10 -11,10 -19,6 -41,-20 -14,-18 -33,-32 -41,-32 -9,0 -26,-7 -39,-16 -32,-23 -43,-4 -35,66 8,72 -7,126 -62,221 -61,105 -57,120 19,79 44,-24 85,-26 115,-5 19,14 24,14 51,0 17,-8 37,-15 46,-15 8,0 15,-4 15,-10 0,-5 -8,-10 -18,-10 -28,0 -79,-28 -86,-47 -12,-29 4,-52 42,-62 125,-31 215,-43 256,-32 22,6 76,13 119,15 42,2 83,8 90,14 6,5 35,20 64,32 29,12 58,28 64,36 6,8 20,14 31,14 11,0 32,8 46,19 15,10 37,22 50,25 39,13 52,55 59,202 5,115 4,138 -9,145 -16,9 -25,109 -10,109 5,0 12,9 15,20 4,15 14,20 36,20 27,0 31,4 33,28 0,15 0,34 -1,42 -1,8 -3,25 -4,37 -1,12 -5,25 -9,29 -5,4 -8,14 -8,22 0,7 -9,26 -21,40 -20,26 -20,26 -1,33 33,12 39,33 9,27 -35,-7 -43,18 -17,54 11,15 17,28 13,28 -4,0 -9,20 -10,44 -2,63 30,94 100,98 65,4 70,2 54,-23 z m -296,-28 c -6,-4 -11,-12 -10,-17 3,-14 -13,-48 -30,-61 -13,-11 -14,-14 -2,-22 20,-13 4,-31 -28,-31 -15,0 -32,-5 -39,-12 -8,-8 -15,-8 -26,1 -18,15 -5,60 25,87 10,9 19,23 19,31 0,7 7,13 16,13 8,0 27,14 42,31 26,31 26,32 36,10 7,-16 6,-25 -3,-30 z m 1086,-50 c 8,-24 13,-44 11,-44 -2,-1 -16,-11 -33,-23 -16,-11 -45,-28 -62,-38 -18,-9 -33,-23 -33,-31 0,-8 -7,-15 -15,-15 -9,0 -18,-7 -21,-15 -5,-12 -9,-13 -21,-3 -13,10 -13,14 3,25 10,8 13,13 5,13 -21,0 -3,17 26,25 37,9 66,41 58,64 -3,10 1,24 10,31 8,7 15,18 15,24 0,16 22,37 33,33 5,-1 16,-22 24,-46 z m -1307,-80 c 0,-17 -31,-81 -39,-81 -9,0 -21,33 -21,58 0,6 7,12 15,12 8,0 15,5 15,10 0,6 7,10 15,10 8,0 15,-4 15,-9 z m 642,-33 c -7,-7 -12,-8 -12,-2 0,14 12,26 19,19 2,-3 -1,-11 -7,-17 z m 460,-30 c -6,-23 -9,-23 -22,1 -8,16 -7,20 9,18 12,-1 17,-7 13,-19 z m 258,-13 c 0,-9 6,-26 14,-38 8,-12 17,-42 21,-67 4,-25 13,-55 21,-67 10,-16 11,-34 5,-70 -5,-26 -8,-51 -5,-54 8,-14 11,-210 3,-215 -5,-3 -9,2 -9,12 0,28 -40,84 -60,84 -11,0 -24,-9 -30,-20 -14,-26 -28,-25 -32,2 -2,14 -15,29 -33,37 -16,8 -24,16 -17,19 6,2 12,12 12,23 0,14 14,26 45,39 25,11 45,24 45,29 0,6 13,25 28,43 24,29 29,41 23,63 -2,9 -121,-55 -121,-65 0,-6 -16,-10 -35,-10 -18,0 -38,-6 -42,-14 -11,-18 -104,-92 -175,-139 -32,-20 -58,-42 -58,-47 0,-6 -6,-10 -14,-10 -7,0 -20,-7 -27,-17 -8,-9 -36,-27 -64,-40 -27,-13 -63,-31 -79,-40 -24,-13 -37,-13 -87,-3 -32,7 -64,19 -70,26 -6,7 -18,10 -26,7 -13,-5 -15,-2 -10,18 4,13 7,32 7,43 0,11 5,16 13,13 7,-3 36,14 64,37 28,22 86,61 129,86 118,69 137,80 166,106 16,12 58,38 96,56 89,43 133,74 146,100 10,19 126,88 148,88 4,0 8,-7 8,-15 z m -225,-35 c 3,-5 1,-10 -4,-10 -6,0 -11,5 -11,10 0,6 2,10 4,10 3,0 8,-4 11,-10 z m -1365,-25 c 0,-17 -43,-31 -61,-20 -8,6 -4,12 12,21 32,18 49,17 49,-1 z m 470,-12 c 0,-19 -3,-24 -10,-17 -6,6 -8,18 -4,27 9,24 14,21 14,-10 z m -1370,-43 c 0,-5 -2,-10 -4,-10 -3,0 -8,5 -11,10 -3,6 -1,10 4,10 6,0 11,-4 11,-10 z m 1225,-11 c 4,-6 -3,-21 -16,-35 l -22,-24 h 21 c 26,0 27,-8 7,-34 -8,-11 -15,-32 -15,-47 0,-15 -5,-31 -10,-34 -6,-4 -8,-11 -5,-16 11,-16 -7,-9 -21,9 -19,24 -17,39 7,74 24,33 19,49 -7,24 -18,-19 -31,-15 -18,6 5,7 9,15 10,18 10,50 53,86 69,59 z m -341,-21 c 3,-13 0,-27 -6,-33 -8,-7 -9,-5 -5,7 3,10 2,20 -3,23 -12,8 -13,25 -1,25 5,0 11,-10 15,-22 z m 461,-25 c -4,-27 -9,-61 -11,-78 -6,-40 -15,-68 -21,-62 -5,6 28,187 35,187 3,0 1,-21 -3,-47 z m -1185,-83 c 6,0 10,9 10,21 0,18 4,20 33,14 63,-14 77,-23 77,-50 0,-35 83,-145 109,-145 5,0 11,-7 15,-15 3,-8 12,-15 20,-15 30,0 86,-42 86,-64 0,-12 13,-37 30,-56 37,-44 37,-50 3,-45 -16,2 -35,4 -44,4 -27,1 -80,57 -73,75 4,9 3,16 -2,14 -23,-6 -63,20 -117,76 -32,33 -63,69 -68,78 -5,10 -14,18 -20,18 -16,0 -120,111 -113,121 2,4 14,-1 24,-11 11,-11 25,-20 30,-20 z m 1593,-21 c 22,-24 30,-24 52,1 21,23 75,27 75,6 0,-7 -15,-21 -34,-30 -19,-9 -57,-34 -85,-56 -42,-33 -51,-37 -53,-23 -2,24 -4,35 -11,53 -3,8 -7,30 -10,48 -4,32 -2,33 22,27 14,-4 34,-15 44,-26 z m -1153,-21 c 0,-9 4,-8 11,2 17,25 -1,-51 -22,-90 -21,-38 -21,-39 -23,42 -1,49 2,58 17,58 9,0 17,-6 17,-12 z m 760,-118 c 0,-5 -5,-10 -11,-10 -5,0 -7,5 -4,10 3,6 8,10 11,10 2,0 4,-4 4,-10 z m -460,-9 c 0,-12 -20,-27 -74,-56 -52,-28 -70,-31 -63,-12 2,6 11,11 19,10 7,-2 30,13 49,32 32,32 69,46 69,26 z m 1440,-71 c 0,-68 -12,-77 -37,-25 -16,34 -16,36 7,60 13,14 25,25 27,25 2,0 3,-27 3,-60 z m -1120,3 c 0,-7 -8,-13 -18,-13 -10,0 -33,-11 -52,-25 -58,-43 -58,-27 0,24 53,47 69,50 70,14 z m -340,-78 c 0,-8 7,-15 15,-15 8,0 15,-4 15,-9 0,-12 -28,-24 -62,-26 -35,-3 -38,27 -6,49 28,20 38,20 38,1 z m 516,-50 c -10,-38 -184,-125 -251,-125 -16,-1 -41,-7 -55,-15 -39,-22 -53,-20 -39,8 16,29 30,38 52,31 10,-3 19,1 23,10 3,9 17,16 31,16 33,0 175,76 210,112 27,29 28,29 31,8 2,-12 1,-32 -2,-45 z m 766,-43 c -3,-25 -14,-39 -43,-58 -21,-13 -40,-24 -42,-24 -1,0 -11,16 -22,36 l -19,36 29,21 c 16,12 43,29 60,38 28,15 30,15 36,0 4,-9 4,-31 1,-49 z m -344,16 c 21,-21 13,-28 -33,-28 -48,0 -59,15 -22,30 31,12 41,12 55,-2 z m 172,-53 c 0,-9 -11,-20 -24,-25 -18,-6 -28,-22 -36,-52 -21,-76 -28,-88 -54,-88 -28,0 -33,-10 -28,-54 3,-23 12,-38 33,-50 27,-16 29,-22 29,-74 0,-63 -35,-140 -50,-111 -13,25 -21,89 -11,89 22,0 22,40 -1,70 -16,22 -22,44 -22,73 1,31 -4,45 -18,55 -28,20 -21,82 10,98 12,6 28,19 35,27 7,9 37,25 67,36 68,24 70,24 70,6 z m 550,-56 c 20,-55 27,-125 11,-115 -13,8 -70,-23 -81,-45 -6,-10 -16,-19 -22,-19 -8,0 -9,27 -4,93 9,118 13,132 39,145 28,13 33,7 57,-59 z m -1560,-10 c 0,-14 -7,-19 -24,-19 -34,0 -41,16 -15,34 26,18 39,13 39,-15 z m 1424,-102 c -4,-42 -10,-77 -14,-77 -11,0 -21,74 -14,111 9,54 14,63 24,53 6,-6 7,-41 4,-87 z m 240,27 c 20,-20 21,-54 1,-54 -14,0 -35,37 -35,61 0,14 17,11 34,-7 z m -363,-167 c -8,-8 -11,5 -10,54 l 2,64 10,-53 c 7,-39 7,-56 -2,-65 z m -849,26 c -3,-40 -11,-65 -25,-80 -44,-49 -45,-23 -5,89 11,32 24,56 28,53 4,-2 5,-30 2,-62 z m 1247,-31 c 0,-31 -4,-77 -7,-102 -7,-45 -7,-45 -44,-42 -43,4 -48,-3 -53,-67 -3,-26 -9,-60 -15,-75 -5,-15 -10,-40 -10,-56 0,-45 -17,-44 -24,1 -4,23 -14,55 -23,72 l -16,31 -23,-28 c -17,-19 -24,-39 -24,-68 v -41 l -23,22 c -20,18 -26,19 -36,8 -20,-24 -52,-130 -58,-192 -7,-72 -19,-102 -26,-65 -3,14 -10,51 -16,84 -19,108 -48,113 -92,19 l -31,-68 -17,67 c -10,36 -22,73 -29,81 -14,17 5,38 53,59 42,18 173,127 282,233 138,136 159,155 170,155 5,0 18,9 28,20 26,29 35,16 34,-48 z m -309,29 c 0,-10 -7,-24 -15,-31 -12,-10 -15,-10 -15,3 0,23 11,47 21,47 5,0 9,-8 9,-19 z m -1054,-53 c -8,-29 -17,-62 -18,-72 -4,-29 -25,-30 -32,-1 -4,14 -13,25 -22,25 -10,0 2,19 32,55 26,30 50,53 52,50 2,-2 -3,-28 -12,-57 z m 882,-46 c 4,-25 -13,-30 -22,-6 -9,25 -7,36 7,32 6,-3 13,-14 15,-26 z m -423,-122 c -5,-15 -10,-19 -17,-12 -5,5 -7,20 -3,32 5,15 10,19 17,12 5,-5 7,-20 3,-32 z m 245,-251 c 0,-13 -58,-69 -71,-69 -5,0 -9,-6 -9,-14 0,-8 -13,-24 -29,-35 -37,-26 -41,-54 -41,-273 0,-295 4,-351 30,-393 l 23,-37 -54,5 c -88,10 -99,15 -99,52 0,17 9,67 20,111 33,125 46,245 54,481 3,105 13,133 46,133 9,0 28,8 41,19 35,27 89,39 89,20 z m -540,-121 c -1,-7 -14,-31 -30,-53 -16,-22 -37,-52 -47,-67 -19,-31 -35,-35 -52,-14 -9,10 -8,15 4,20 21,8 19,17 -14,53 -28,31 -28,31 -7,42 21,10 96,28 129,30 9,1 17,-5 17,-11 z m 1030,-100 c 0,-32 -15,-55 -23,-35 -7,19 2,57 14,57 5,0 9,-10 9,-22 z m -145,-192 c -5,-79 -11,-119 -21,-127 -12,-10 -14,-3 -14,37 0,48 15,161 26,197 13,41 16,1 9,-107 z m -136,7 c -1,-54 1,-130 6,-169 l 8,-72 -68,-66 c -65,-64 -107,-86 -162,-86 -18,0 -23,6 -23,24 0,27 33,56 62,56 10,0 23,9 30,20 13,20 13,20 30,-2 24,-31 51,-14 60,38 3,21 11,64 18,94 7,30 11,78 10,105 -2,71 10,155 22,155 6,0 9,-37 7,-97 z m -909,16 c 0,-29 -14,-46 -25,-29 -3,5 -21,10 -38,10 -56,0 -107,12 -107,25 0,19 75,48 104,41 14,-3 28,-1 32,5 10,18 34,-19 34,-52 z m 1090,25 c 0,-13 -4,-24 -10,-24 -5,0 -10,14 -10,31 0,17 4,28 10,24 6,-3 10,-17 10,-31 z m -139,-41 c -9,-16 -10,-14 -11,12 0,21 3,26 11,18 8,-8 8,-16 0,-30 z m -1385,-81 c -4,-3 -11,-1 -18,6 -8,8 -8,15 3,28 13,16 14,16 17,-5 2,-13 1,-25 -2,-29 z m 379,-12 c 3,-5 18,-10 33,-10 15,-1 39,-11 53,-23 22,-18 26,-28 22,-54 -6,-38 -14,-40 -58,-13 -22,14 -58,22 -121,26 -94,7 -124,16 -124,38 0,19 22,26 78,26 26,0 54,5 62,10 20,13 47,13 55,0 z"
       id="path24"
       inkscape:connector-curvature="0" />
    <path
       d="m 10667,5673 c -4,-3 -7,-11 -7,-17 0,-6 5,-5 12,2 6,6 9,14 7,17 -3,3 -9,2 -12,-2 z"
       id="path26"
       inkscape:connector-curvature="0" />
    <path
       d="m 10640,5320 c 0,-5 5,-10 11,-10 5,0 7,5 4,10 -3,6 -8,10 -11,10 -2,0 -4,-4 -4,-10 z"
       id="path28"
       inkscape:connector-curvature="0" />
    <path
       d="m 10687,4988 c -2,-7 -2,-28 1,-46 4,-28 7,-32 26,-26 29,9 29,8 12,48 -15,37 -30,46 -39,24 z"
       id="path30"
       inkscape:connector-curvature="0" />
    <path
       d="m 10390,5690 c 0,-5 5,-10 10,-10 6,0 10,5 10,10 0,6 -4,10 -10,10 -5,0 -10,-4 -10,-10 z"
       id="path32"
       inkscape:connector-curvature="0" />
    <path
       d="m 11583,5243 c -18,-6 -16,-23 1,-23 17,0 30,16 19,23 -5,2 -14,2 -20,0 z"
       id="path34"
       inkscape:connector-curvature="0" />
    <path
       d="m 10930,5125 c -12,-14 -6,-35 9,-35 12,0 21,39 11,45 -4,3 -13,-2 -20,-10 z"
       id="path36"
       inkscape:connector-curvature="0" />
    <path
       d="m 5540,2570 c -41,-22 -100,-58 -130,-80 -30,-22 -70,-48 -87,-57 -18,-9 -33,-22 -33,-28 0,-7 -12,-21 -26,-31 -14,-10 -53,-45 -86,-76 -33,-32 -63,-58 -68,-58 -5,0 -11,-8 -14,-17 -3,-10 -25,-39 -48,-64 -92,-100 -124,-141 -158,-208 -44,-86 -56,-117 -65,-161 -4,-19 -14,-47 -21,-62 -17,-33 -20,-211 -4,-253 18,-49 91,-188 109,-209 21,-24 107,-79 149,-96 18,-7 36,-18 40,-25 8,-13 101,-58 168,-81 48,-16 95,-14 120,7 11,9 49,14 121,16 63,1 110,6 119,14 7,6 24,9 35,6 16,-4 36,6 76,40 56,48 141,93 174,93 10,0 28,9 39,20 12,12 25,18 30,15 10,-6 21,8 26,38 2,12 6,34 10,49 4,17 0,35 -10,50 -9,12 -16,43 -16,68 0,25 -7,67 -15,94 -8,27 -15,69 -15,93 0,31 -6,49 -21,64 -19,19 -28,21 -83,14 -33,-4 -81,-9 -106,-10 -25,-2 -75,-5 -111,-8 -41,-3 -77,-12 -94,-23 -16,-11 -47,-26 -69,-34 -32,-12 -42,-21 -44,-42 -5,-38 19,-46 118,-42 154,7 165,7 209,1 69,-10 76,-23 75,-129 -1,-86 -3,-93 -27,-112 -53,-44 -124,-81 -187,-99 -86,-25 -259,-33 -297,-14 -15,8 -50,15 -78,16 -27,1 -54,6 -59,12 -6,5 -19,9 -31,9 -12,0 -36,11 -55,25 -19,14 -39,25 -46,25 -30,0 -118,129 -100,148 4,3 -4,16 -16,30 -20,21 -23,33 -21,105 1,76 8,108 32,147 5,8 19,35 30,60 32,71 168,268 235,340 18,20 36,46 40,57 10,33 142,155 194,182 26,13 54,30 63,37 9,8 26,17 39,19 13,2 30,11 39,18 12,11 31,13 76,7 44,-5 70,-3 98,8 41,16 63,8 34,-12 -17,-13 -25,-42 -8,-32 11,7 63,-11 72,-25 4,-7 9,-4 12,5 4,10 1,16 -8,16 -8,0 -15,6 -15,13 0,19 21,37 42,37 21,0 25,42 5,58 -7,6 -47,25 -89,41 -110,44 -170,42 -268,-9 z"
       id="path38"
       inkscape:connector-curvature="0" />
    <path
       d="m 6615,2578 c -27,-5 -60,-10 -71,-12 -51,-7 -168,-120 -184,-177 -5,-20 -19,-44 -30,-54 -26,-23 -47,-86 -55,-160 -4,-33 -13,-98 -21,-144 -7,-45 -12,-87 -9,-91 3,-4 -3,-25 -12,-46 -9,-22 -22,-86 -30,-144 -20,-148 -30,-211 -51,-322 -15,-83 -16,-101 -5,-122 8,-14 20,-26 28,-26 21,0 25,-12 15,-53 -12,-55 1,-92 31,-92 19,0 29,10 45,45 22,45 76,279 68,291 -5,8 34,277 41,290 3,4 8,86 11,181 4,131 8,176 19,188 16,18 19,58 6,78 -5,8 -1,40 9,78 36,132 160,217 285,196 34,-6 40,-11 43,-34 3,-23 9,-27 45,-33 53,-9 105,-35 136,-69 25,-27 25,-51 0,-140 -10,-37 -110,-156 -131,-156 -4,0 -38,-18 -74,-40 -36,-22 -71,-40 -76,-40 -5,0 -22,-6 -36,-13 -15,-8 -42,-21 -60,-30 -19,-10 -38,-14 -44,-11 -5,3 -23,-6 -39,-22 -25,-24 -29,-35 -29,-85 0,-32 4,-69 9,-82 5,-13 75,-91 156,-172 80,-81 168,-177 195,-214 55,-75 114,-131 139,-131 20,0 91,-60 91,-77 0,-6 16,-23 35,-37 l 35,-27 v 38 c 0,21 9,56 20,78 11,22 20,46 20,55 0,8 7,24 15,34 8,11 15,28 15,37 0,13 99,225 116,247 1,2 14,-8 28,-23 25,-25 27,-25 62,-10 20,8 62,18 93,21 66,6 128,22 156,41 11,7 41,13 68,13 26,0 62,8 80,17 18,9 50,20 72,23 22,4 52,10 66,14 22,6 29,2 53,-32 39,-57 100,-209 125,-312 6,-25 20,-63 31,-85 37,-77 70,-154 70,-163 0,-5 8,-16 19,-26 16,-15 19,-15 31,-1 7,8 8,15 3,15 -14,0 -10,43 5,59 11,11 13,30 8,80 -4,36 -11,68 -16,69 -6,2 -10,10 -10,17 0,8 -9,29 -19,47 -11,18 -24,62 -30,96 -6,35 -14,69 -19,75 -5,7 -15,35 -22,62 -7,28 -18,57 -24,65 -20,27 -110,221 -166,359 -31,76 -43,117 -41,149 1,27 -5,55 -15,70 -14,21 -21,23 -54,18 -37,-6 -40,-5 -56,31 -10,21 -24,46 -32,56 -11,12 -11,17 -3,17 8,0 11,12 9,32 -3,30 -7,33 -43,39 -51,8 -83,-4 -95,-36 -5,-13 -18,-30 -30,-37 -11,-7 -20,-21 -20,-32 0,-10 -17,-35 -39,-56 -21,-20 -44,-51 -52,-69 -8,-17 -17,-31 -21,-31 -4,0 -14,-15 -21,-32 -8,-18 -32,-62 -54,-98 -51,-84 -133,-253 -133,-275 0,-9 -11,-38 -24,-64 -59,-111 -86,-172 -86,-190 0,-11 -6,-24 -13,-28 -6,-4 -21,-34 -31,-65 -11,-32 -27,-66 -38,-77 -10,-11 -18,-28 -18,-39 0,-19 -26,-61 -32,-52 -2,3 -14,20 -27,39 -20,28 -23,41 -18,83 4,33 2,61 -7,82 -19,42 -73,96 -95,96 -21,0 -33,22 -25,45 4,8 2,15 -3,15 -22,0 -120,109 -155,173 -37,69 -38,74 -8,89 3,2 16,18 29,36 12,17 27,32 32,32 11,0 101,59 144,95 17,13 35,25 40,25 14,0 85,85 85,102 0,7 10,28 21,47 20,34 22,52 20,180 -1,50 -41,130 -72,147 -15,7 -30,22 -34,33 -7,23 -39,35 -133,50 -82,13 -116,12 -187,-1 z m 1037,-390 c -6,-6 -15,-8 -19,-4 -4,4 -1,11 7,16 19,12 27,3 12,-12 z m 75,-40 c 18,-18 37,-44 42,-58 6,-14 16,-33 23,-42 17,-23 -17,-64 -39,-47 -17,15 -25,7 -17,-15 4,-11 12,-15 23,-10 48,20 57,17 74,-28 37,-96 58,-171 50,-178 -15,-12 -108,-30 -183,-35 -69,-4 -113,-10 -230,-34 -25,-5 -47,-8 -49,-5 -2,2 -15,-6 -29,-16 -29,-24 -52,-26 -52,-5 0,20 58,144 75,162 8,8 15,20 16,26 0,7 23,41 49,77 27,36 61,86 74,111 13,25 32,51 40,58 9,8 16,22 16,32 0,10 5,21 10,24 6,4 10,-5 10,-19 0,-24 2,-25 20,-14 11,7 23,21 26,30 8,25 16,23 51,-14 z"
       id="path40"
       inkscape:connector-curvature="0" />
    <path
       d="m 15559,2497 c -17,-13 -25,-41 -34,-117 -2,-25 -9,-60 -14,-78 -6,-20 -8,-107 -4,-210 7,-246 10,-609 5,-654 -5,-46 -20,-48 -47,-8 -11,16 -42,41 -70,55 -56,28 -141,96 -230,185 -33,33 -65,60 -71,60 -7,0 -19,15 -27,33 -9,18 -27,43 -41,56 -14,14 -26,34 -26,45 -1,59 -78,80 -113,32 -11,-15 -88,73 -120,137 -24,48 -66,184 -71,233 -1,11 -12,30 -24,42 -12,12 -22,33 -22,45 0,32 -33,61 -59,52 -28,-9 -45,-69 -37,-136 3,-30 6,-89 5,-132 0,-47 4,-84 11,-92 7,-8 9,-22 6,-32 -4,-9 -7,-99 -7,-199 0,-166 -6,-253 -29,-399 -21,-138 -40,-312 -35,-332 7,-31 43,-49 60,-31 14,15 41,158 50,263 4,39 15,124 25,190 13,81 20,185 22,322 3,230 12,258 48,166 52,-128 120,-214 360,-454 127,-126 230,-234 230,-239 0,-5 21,-25 48,-45 52,-39 107,-85 151,-127 38,-37 63,-37 59,-1 -2,19 2,28 13,31 24,5 32,-27 13,-55 -15,-24 -15,-24 7,-21 52,7 89,114 85,241 -2,43 1,80 5,83 10,6 0,56 -12,64 -5,3 -11,98 -13,210 -3,113 -10,261 -15,330 -5,69 -10,205 -11,303 -2,161 -4,178 -20,187 -24,13 -31,12 -51,-3 z"
       id="path42"
       inkscape:connector-curvature="0" />
    <path
       d="m 17652,2495 c -23,-7 -61,-15 -85,-18 -72,-10 -160,-36 -217,-66 -30,-15 -70,-31 -89,-35 -19,-3 -72,-27 -117,-52 -60,-34 -87,-56 -102,-83 -20,-37 -41,-145 -49,-260 -8,-110 29,-446 63,-576 13,-49 24,-109 24,-132 0,-39 6,-48 68,-113 60,-62 71,-70 105,-70 21,0 49,-8 63,-17 21,-13 32,-14 55,-6 22,9 31,8 40,-4 10,-11 29,-13 88,-9 42,3 92,6 111,6 19,1 42,8 51,16 18,17 61,21 96,10 24,-8 86,21 108,51 12,15 17,16 34,6 18,-12 21,-10 27,12 4,15 13,25 24,25 23,0 31,12 20,29 -6,11 -25,12 -92,6 -45,-5 -112,-9 -149,-10 -36,-1 -75,-7 -87,-14 -24,-13 -161,-16 -207,-5 -17,3 -37,12 -45,19 -8,7 -37,23 -65,35 -27,12 -60,26 -71,32 -36,17 -74,57 -79,86 -3,15 -10,43 -15,62 -10,38 -15,93 -12,152 l 2,37 53,1 c 99,2 131,0 140,-9 5,-5 31,-7 58,-4 36,4 55,1 75,-12 22,-14 28,-15 35,-4 5,8 9,21 9,29 0,26 22,40 61,40 44,0 136,39 163,69 11,11 30,21 43,21 12,0 23,4 23,9 0,5 3,18 6,28 4,13 3,14 -3,5 -7,-10 -16,-10 -38,-2 -18,7 -78,9 -164,6 -75,-3 -188,-2 -251,2 -120,9 -148,3 -193,-36 -12,-11 -21,-12 -28,-5 -14,14 -23,119 -23,266 0,117 0,118 30,147 16,16 53,38 81,48 29,10 61,26 70,35 10,8 38,18 63,22 25,3 52,8 60,9 73,14 91,20 99,35 7,11 24,16 53,17 43,0 168,29 200,45 10,5 27,9 38,9 21,0 40,27 40,59 0,18 -10,25 -31,23 -4,-1 -17,10 -29,23 -27,29 -69,32 -138,10 z m -2,-115 c -8,-5 -19,-10 -25,-10 -5,0 -3,5 5,10 8,5 20,10 25,10 6,0 3,-5 -5,-10 z"
       id="path44"
       inkscape:connector-curvature="0" />
    <path
       d="m 16625,2459 c -38,-4 -88,-11 -110,-17 -22,-6 -85,-13 -140,-17 -55,-3 -118,-9 -140,-12 -22,-3 -85,-7 -140,-10 -173,-8 -205,-13 -267,-44 -47,-24 -49,-51 -7,-90 36,-34 39,-34 165,-14 73,12 99,13 110,4 7,-6 21,-9 29,-5 10,3 18,-1 22,-12 3,-9 12,-24 20,-33 8,-9 20,-57 28,-105 14,-94 29,-145 53,-181 8,-13 11,-23 7,-23 -5,0 -1,-8 7,-17 9,-10 30,-62 48,-116 18,-54 39,-101 47,-104 9,-4 13,-14 9,-27 -3,-11 -1,-39 5,-61 17,-73 27,-175 20,-202 -5,-17 -2,-38 7,-56 8,-16 12,-41 9,-55 -7,-34 14,-118 35,-138 13,-13 19,-14 37,-2 24,15 28,55 7,72 -12,9 -13,21 -4,66 5,30 7,75 4,100 -3,25 -8,68 -10,95 -2,28 -13,91 -24,140 -12,50 -31,136 -43,192 -12,57 -26,100 -30,97 -5,-3 -9,0 -9,5 0,6 5,11 10,11 16,0 12,34 -10,85 -11,26 -20,56 -20,68 0,12 -5,29 -10,37 -8,13 -11,12 -24,-5 -20,-27 -31,-12 -32,43 0,26 -8,65 -18,86 -25,61 -9,71 104,69 49,-1 106,-6 125,-12 37,-10 61,-5 129,24 23,10 51,14 68,11 20,-4 30,-1 34,9 4,8 10,15 15,15 16,0 120,113 111,122 -11,11 -140,15 -227,7 z m -283,-491 c -9,-9 -12,-7 -12,12 0,19 3,21 12,12 9,-9 9,-15 0,-24 z"
       id="path46"
       inkscape:connector-curvature="0" />
    <path
       d="m 16886,2451 c -10,-16 5,-41 25,-41 23,0 26,35 3,44 -20,8 -22,8 -28,-3 z"
       id="path48"
       inkscape:connector-curvature="0" />
    <path
       d="m 5886,2435 c 4,-8 10,-15 15,-15 5,0 9,7 9,15 0,8 -7,15 -15,15 -9,0 -12,-6 -9,-15 z"
       id="path50"
       inkscape:connector-curvature="0" />
    <path
       d="m 9526,2416 c -25,-24 -52,-123 -43,-157 3,-10 2,-17 -3,-14 -13,8 -20,-24 -10,-50 8,-22 7,-95 -5,-252 -1,-22 -6,-46 -9,-52 -4,-6 -9,-33 -11,-59 -2,-26 -7,-69 -10,-97 -3,-27 -7,-162 -10,-299 -3,-137 -8,-253 -10,-257 -8,-12 -45,2 -45,16 0,8 -32,44 -71,82 -38,37 -85,91 -104,118 -19,28 -43,61 -54,75 -12,14 -21,31 -21,38 0,6 -5,12 -10,12 -6,0 -14,8 -18,18 -4,10 -17,32 -30,48 -13,16 -33,45 -45,64 -13,19 -29,35 -37,35 -9,0 -16,12 -18,29 -4,28 -101,169 -134,194 -10,7 -18,19 -18,27 0,13 -49,75 -110,141 -34,35 -70,114 -70,152 0,15 -4,32 -8,37 -14,21 -70,55 -90,55 -28,0 -61,-68 -68,-138 -3,-31 -9,-84 -13,-117 -7,-47 -6,-64 5,-76 8,-9 12,-22 10,-30 -3,-8 -7,-56 -10,-108 -4,-51 -8,-97 -11,-101 -9,-14 -30,-450 -28,-567 2,-68 4,-74 35,-102 18,-17 38,-31 44,-31 32,-1 68,96 46,123 -6,7 -8,31 -5,57 6,38 8,41 13,20 5,-19 8,-11 13,34 4,32 4,63 -1,70 -4,6 -5,88 0,181 4,94 10,255 13,359 3,104 7,192 10,194 3,3 16,-20 30,-51 14,-30 32,-58 40,-61 8,-3 15,-11 15,-19 0,-7 12,-24 26,-38 14,-13 33,-38 42,-55 36,-65 58,-98 87,-130 17,-18 46,-59 65,-91 19,-32 62,-89 96,-128 34,-38 69,-88 78,-110 10,-22 27,-51 40,-65 13,-14 34,-43 47,-65 13,-22 76,-92 140,-155 115,-113 159,-169 159,-201 0,-9 7,-20 16,-23 21,-8 24,-8 24,5 0,6 11,24 25,41 14,16 25,37 25,47 0,9 5,22 10,27 13,13 15,219 4,359 -14,183 -6,454 20,625 8,52 14,106 14,120 0,14 5,54 10,90 20,132 18,201 -5,217 -25,19 -41,16 -67,-11 z m -450,-903 c -7,-7 -26,7 -26,19 0,6 6,6 15,-2 9,-7 13,-15 11,-17 z m 302,-381 c 3,-9 -2,-13 -14,-10 -9,1 -19,9 -22,16 -3,9 2,13 14,10 9,-1 19,-9 22,-16 z"
       id="path52"
       inkscape:connector-curvature="0" />
    <path
       d="m 18550,2414 c -41,-9 -95,-18 -120,-21 -56,-6 -73,-20 -66,-49 4,-14 -2,-39 -15,-64 -21,-39 -21,-42 -5,-134 9,-51 16,-124 16,-162 0,-38 7,-130 15,-204 9,-74 16,-171 16,-215 0,-86 0,-100 1,-142 1,-37 -7,-116 -22,-234 -14,-105 -12,-122 19,-139 16,-8 24,-7 40,9 31,31 65,156 68,251 5,168 4,296 -1,345 -3,28 -10,97 -16,155 -5,58 -14,128 -19,155 -6,28 -10,97 -10,155 -1,88 2,110 19,138 12,19 28,32 40,32 12,0 33,6 48,14 25,13 104,29 127,26 6,0 38,-2 72,-4 35,-2 68,-8 75,-14 7,-5 66,-12 130,-15 126,-7 143,-13 175,-61 28,-41 25,-94 -10,-167 -15,-31 -27,-64 -27,-75 0,-10 -13,-33 -28,-50 -29,-34 -127,-104 -146,-104 -6,0 -30,-14 -54,-30 -24,-16 -63,-37 -88,-46 -44,-17 -46,-17 -89,5 -25,12 -60,25 -79,28 -29,4 -37,1 -51,-20 -15,-24 -15,-28 5,-67 12,-24 40,-61 62,-84 22,-22 47,-53 56,-69 9,-15 23,-29 32,-32 9,-3 89,-76 178,-162 89,-87 178,-171 197,-186 20,-17 35,-38 35,-50 0,-12 4,-29 10,-37 8,-12 11,-12 28,3 15,13 25,15 53,7 45,-13 49,-13 49,5 0,8 4,15 9,15 4,0 6,11 3,25 -2,14 1,31 7,39 16,19 6,37 -40,69 -22,15 -43,37 -48,50 -10,27 -86,97 -161,151 -65,46 -170,146 -170,162 0,6 -7,17 -15,24 -8,7 -15,18 -15,25 0,17 84,77 160,116 93,47 155,110 196,197 66,140 71,253 15,339 -29,44 -39,52 -89,67 -129,38 -446,54 -572,30 z"
       id="path54"
       inkscape:connector-curvature="0" />
    <path
       d="m 6000,2401 c -7,-15 -7,-21 0,-21 12,0 25,28 17,36 -3,3 -10,-4 -17,-15 z"
       id="path56"
       inkscape:connector-curvature="0" />
    <path
       d="m 14085,2279 c -19,-42 -21,-69 -12,-159 4,-35 10,-54 18,-52 7,2 9,-6 5,-22 -3,-13 -1,-37 6,-53 14,-34 20,-347 7,-383 -5,-14 -13,-56 -18,-95 -10,-69 -36,-203 -47,-238 -9,-30 -156,-127 -191,-127 -7,0 -27,6 -45,14 -59,26 -72,29 -128,30 -42,1 -73,10 -135,40 -93,46 -106,57 -99,83 3,11 -1,25 -10,32 -9,8 -16,24 -16,37 0,28 -7,29 -34,9 -20,-15 -20,-15 1,-43 25,-34 38,-72 24,-72 -15,0 -41,29 -41,46 0,10 -6,13 -19,9 -17,-5 -18,-1 -14,38 4,32 1,48 -11,60 -9,9 -19,31 -22,49 -14,86 -40,186 -65,253 -21,54 -26,133 -14,206 6,36 3,53 -14,84 -12,22 -21,50 -21,62 0,19 -5,23 -34,23 -40,0 -45,-5 -46,-51 -4,-129 21,-343 49,-424 5,-16 22,-70 36,-120 15,-49 31,-100 36,-113 5,-13 9,-32 9,-43 0,-10 9,-36 20,-56 11,-21 20,-43 20,-50 0,-6 3,-13 8,-15 4,-1 27,-26 50,-54 31,-37 60,-59 100,-77 87,-38 94,-40 136,-43 86,-8 229,-35 256,-49 36,-19 40,-19 40,0 0,8 4,15 8,15 5,0 18,9 31,21 16,15 31,20 53,17 17,-3 45,2 63,11 49,24 163,154 170,193 35,208 43,310 26,336 -4,7 -4,32 0,55 9,42 -1,195 -23,357 -6,47 -12,123 -13,170 -1,97 -15,130 -56,130 -21,0 -30,-8 -44,-41 z"
       id="path58"
       inkscape:connector-curvature="0" />
    <path
       d="m 12695,2270 c -3,-5 -1,-10 4,-10 6,0 11,5 11,10 0,6 -2,10 -4,10 -3,0 -8,-4 -11,-10 z"
       id="path60"
       inkscape:connector-curvature="0" />
    <path
       d="m 12749,2252 c 6,-11 8,-22 5,-25 -3,-3 1,-16 10,-29 16,-22 16,-22 16,14 0,28 -6,40 -21,48 -18,10 -19,10 -10,-8 z"
       id="path62"
       inkscape:connector-curvature="0" />
    <path
       d="m 10880,2229 c -19,-5 -71,-8 -115,-7 -44,1 -110,-2 -147,-5 -42,-4 -69,-3 -73,4 -5,6 -12,6 -22,-3 -9,-7 -44,-14 -77,-15 -34,-1 -115,-3 -181,-5 -78,-2 -129,-8 -145,-18 -14,-7 -38,-16 -53,-19 -22,-5 -32,-15 -42,-44 -16,-46 -3,-106 23,-109 37,-3 69,4 100,24 29,18 44,20 99,15 36,-4 67,-8 68,-9 10,-11 13,-407 3,-518 -6,-74 -13,-191 -15,-260 -1,-69 -5,-181 -8,-249 -5,-101 -3,-128 10,-147 25,-38 57,-31 98,22 31,39 35,50 25,67 -7,15 -7,35 0,71 11,49 15,99 29,331 7,122 8,362 1,528 -5,101 -7,110 -32,136 l -27,29 53,13 c 64,17 77,17 105,7 13,-4 25,-3 28,2 4,6 23,10 44,10 21,0 52,7 70,16 17,9 39,13 48,10 20,-8 81,11 112,35 15,12 29,16 40,10 20,-11 42,-3 59,21 7,10 22,18 33,18 23,0 26,35 3,44 -21,8 -71,6 -114,-5 z"
       id="path64"
       inkscape:connector-curvature="0" />
    <path
       d="m 12676,2229 c -2,-8 -7,-38 -11,-67 -6,-51 1,-84 35,-167 5,-11 11,-38 15,-60 14,-84 24,-131 34,-173 18,-67 5,-82 -77,-84 -37,-1 -87,-2 -112,0 -25,1 -67,-3 -95,-9 -27,-6 -75,-13 -105,-15 -30,-3 -73,-9 -95,-14 -51,-11 -251,-17 -261,-8 -4,4 -1,14 5,22 13,15 7,36 -10,36 -5,0 -9,-18 -9,-40 0,-39 -12,-52 -26,-29 -3,6 -8,109 -10,228 -1,120 -8,229 -13,244 -6,16 -11,34 -11,41 0,38 -62,49 -84,14 -16,-28 -29,-101 -15,-93 5,4 9,-1 9,-9 0,-9 -6,-13 -15,-10 -29,11 -30,-23 -11,-376 7,-123 12,-164 25,-188 6,-11 12,-119 14,-257 5,-246 7,-259 47,-252 42,6 72,169 69,377 0,80 3,113 16,138 17,33 29,40 41,21 4,-8 26,-9 68,-4 33,4 84,9 111,10 138,9 308,26 316,30 5,4 25,2 44,-4 21,-6 37,-6 41,0 3,5 15,9 28,9 13,0 31,10 42,21 10,12 29,25 41,30 12,4 23,18 25,30 2,12 8,24 14,26 19,6 25,-27 13,-68 -9,-30 -9,-48 -1,-78 7,-21 12,-55 12,-75 0,-20 7,-53 16,-74 9,-22 17,-78 19,-137 9,-205 19,-245 65,-252 35,-5 50,48 48,174 0,59 3,120 7,136 5,18 3,33 -6,44 -14,16 -22,83 -38,323 -5,74 -14,147 -20,162 -6,16 -8,41 -5,57 4,17 -1,41 -10,60 -10,19 -18,62 -20,107 -3,81 -16,106 -58,108 -18,1 -22,6 -20,24 4,26 -14,30 -21,5 -3,-12 -5,-9 -6,8 -1,31 -48,80 -55,58 z"
       id="path66"
       inkscape:connector-curvature="0" />
    <path
       d="m 13124,2175 c -9,-21 14,-45 43,-45 28,0 40,24 23,45 -16,19 -59,19 -66,0 z"
       id="path68"
       inkscape:connector-curvature="0" />
    <path
       d="m 8601,1364 c 0,-11 3,-14 6,-6 3,7 2,16 -1,19 -3,4 -6,-2 -5,-13 z"
       id="path70"
       inkscape:connector-curvature="0" />
    <path
       d="m 5340,1285 c -25,-14 -24,-14 18,-16 23,-1 48,-2 55,-3 6,-1 12,5 12,13 0,19 -54,23 -85,6 z"
       id="path72"
       inkscape:connector-curvature="0" />
    <path
       d="m 7165,1269 c -11,-17 1,-21 15,-4 8,9 8,15 2,15 -6,0 -14,-5 -17,-11 z"
       id="path74"
       inkscape:connector-curvature="0" />
    <path
       d="m 8590,1185 c 0,-15 4,-24 10,-20 6,3 10,12 10,20 0,8 -4,17 -10,20 -6,4 -10,-5 -10,-20 z"
       id="path76"
       inkscape:connector-curvature="0" />
  </g>
</svg>
